<svg id="icon-descarga" xmlns="http://www.w3.org/2000/svg" viewBox="0 0 16.41 16.41" fill="#f1bf7b"><path d="M12,15.45a1.26,1.26,0,0,1-.43-.08,1,1,0,0,1-.37-.24L7.51,11.44a1.07,1.07,0,0,1-.33-.8A1.18,1.18,0,0,1,8.32,9.49a1.07,1.07,0,0,1,.8.34l1.74,1.73V4.93a1.14,1.14,0,0,1,2.28,0v6.63l1.74-1.73a1.07,1.07,0,0,1,.8-.34,1.15,1.15,0,0,1,.81.35,1.2,1.2,0,0,1,.33.8,1.13,1.13,0,0,1-.33.8L12.8,15.13a1,1,0,0,1-.37.24A1.26,1.26,0,0,1,12,15.45ZM6.07,20.2A2.25,2.25,0,0,1,3.8,17.93V16.07a1.13,1.13,0,0,1,1.13-1.14,1.13,1.13,0,0,1,1.14,1.14v1.86H17.93V16.07a1.14,1.14,0,1,1,2.27,0v1.86a2.25,2.25,0,0,1-2.27,2.27Z" transform="translate(-3.8 -3.8)"/></svg>