<svg id="whatsapp" xmlns="http://www.w3.org/2000/svg" viewBox="0 0 60.16 60.2" alt=""><defs><style>.cls-1{fill:#29a71a;stroke:#fff;stroke-miterlimit:10;stroke-width:0.16px;}.cls-2{fill:#fff;}</style></defs><path class="cls-1" d="M31.44,2.5c.71,0,1.41,0,2.12,0,.91,0,1.83.14,2.73.26A29.22,29.22,0,0,1,48.67,7.27a29.57,29.57,0,0,1,13.63,22c.09.74.15,1.45.18,2.19,0,.31,0,.89,0,1.52s-.1,1.6-.13,1.94a33.69,33.69,0,0,1-.55,3.87,29.94,29.94,0,0,1-37,22.72A29.33,29.33,0,0,1,6.16,46.81,29.11,29.11,0,0,1,3,27.13a28.86,28.86,0,0,1,7.15-14.58,29.46,29.46,0,0,1,19-9.82C29.94,2.64,30.69,2.55,31.44,2.5Zm1.11,11.11c-1.22.15-2.45.23-3.65.46a18.69,18.69,0,0,0-13.29,26.3,1.71,1.71,0,0,1,.11,1C15.15,44.25,14.54,47.13,14,50c-.22,1.08.18,1.46,1.26,1.21,2.81-.67,5.61-1.34,8.42-2a1.67,1.67,0,0,1,1,.07,18.71,18.71,0,1,0,7.93-35.71Z" transform="translate(-2.42 -2.4)"/><path class="cls-2" d="M32.55,13.61a18.72,18.72,0,1,1-7.93,35.71,1.67,1.67,0,0,0-1-.07c-2.81.64-5.61,1.31-8.42,2-1.08.25-1.48-.13-1.26-1.21.59-2.89,1.2-5.77,1.77-8.65a1.71,1.71,0,0,0-.11-1A18.69,18.69,0,0,1,28.9,14.07C30.1,13.84,31.33,13.76,32.55,13.61ZM19,46c.26,0,.42,0,.58-.09,1.43-.33,2.86-.63,4.27-1a2.09,2.09,0,0,1,1.66.2,14.52,14.52,0,1,0-7.34-10.3,15.43,15.43,0,0,0,1.69,4.77A2,2,0,0,1,20.07,41C19.71,42.63,19.39,44.26,19,46Z" transform="translate(-2.42 -2.4)"/><path class="cls-1" d="M19,46c.37-1.74.69-3.37,1.05-5a2,2,0,0,0-.19-1.45,15.43,15.43,0,0,1-1.69-4.77,14.51,14.51,0,1,1,7.34,10.3,2.09,2.09,0,0,0-1.66-.2c-1.41.38-2.84.68-4.27,1C19.44,46,19.28,46,19,46Zm18.34-4.46a15,15,0,0,0,1.78-.29,5.62,5.62,0,0,0,3.1-2.63,1.41,1.41,0,0,0-.83-2.3c-1.12-.34-2.24-.66-3.37-1a1.48,1.48,0,0,0-1.56.42c-.18.2-.38.39-.58.58-.72.72-1.16.82-2,.3a19.54,19.54,0,0,1-5.51-4.85,1.36,1.36,0,0,1,0-2,3.51,3.51,0,0,0,.61-.85,2,2,0,0,0,.16-1.27,36.72,36.72,0,0,0-1.58-3.58,1.31,1.31,0,0,0-2-.46,10.89,10.89,0,0,0-1.4,1.4,4.4,4.4,0,0,0-1.08,3.07,8.53,8.53,0,0,0,1.26,4.22,21.76,21.76,0,0,0,8.28,7.85A10.59,10.59,0,0,0,37.36,41.54Z" transform="translate(-2.42 -2.4)"/><path class="cls-2" d="M37.36,41.54a10.59,10.59,0,0,1-4.75-1.37,21.76,21.76,0,0,1-8.28-7.85,8.53,8.53,0,0,1-1.26-4.22A4.4,4.4,0,0,1,24.15,25a10.89,10.89,0,0,1,1.4-1.4,1.31,1.31,0,0,1,2,.46,36.72,36.72,0,0,1,1.58,3.58A2,2,0,0,1,29,28.94a3.51,3.51,0,0,1-.61.85,1.36,1.36,0,0,0,0,2,19.54,19.54,0,0,0,5.51,4.85c.86.52,1.3.42,2-.3.2-.19.4-.38.58-.58A1.48,1.48,0,0,1,38,35.35c1.13.31,2.25.63,3.37,1a1.41,1.41,0,0,1,.83,2.3,5.62,5.62,0,0,1-3.1,2.63A15,15,0,0,1,37.36,41.54Z" transform="translate(-2.42 -2.4)"/></svg>