<svg xmlns="http://www.w3.org/2000/svg" viewBox="0 0 28.8 28.8"><defs><style>.cls-1{fill:#f1bf7b;}</style></defs><g id="Capa_2" data-name="Capa 2"><g id="Capa_3" data-name="Capa 3"><path class="cls-1" d="M14.6,0A14.4,14.4,0,1,0,28.8,14.2,14.42,14.42,0,0,0,14.6,0Zm8.75,22.66a.24.24,0,0,1-.1.06.14.14,0,0,1-.11,0,.24.24,0,0,1-.12,0,.18.18,0,0,1-.09-.08,8.75,8.75,0,0,0-2.24-2.05,11.77,11.77,0,0,0-6.29-1.75,11.79,11.79,0,0,0-6.29,1.75,8.75,8.75,0,0,0-2.24,2.05.24.24,0,0,1-.09.08.2.2,0,0,1-.11,0,.23.23,0,0,1-.12,0,.23.23,0,0,1-.1-.07,12.12,12.12,0,0,1-3.23-8,12.18,12.18,0,1,1,24.36-.21A12.12,12.12,0,0,1,23.35,22.66Z"/><path class="cls-1" d="M14.4,6a4.68,4.68,0,0,0-3.55,1.56,5.31,5.31,0,0,0-1.24,3.9C9.82,14.4,12,16.8,14.4,16.8s4.58-2.4,4.79-5.34a5.27,5.27,0,0,0-1.25-3.89A4.68,4.68,0,0,0,14.4,6Z"/></g></g></svg>