<svg xmlns="http://www.w3.org/2000/svg" viewBox="0 0 141.02 19.51"><defs><style>.cls-1{fill:#fff;}</style></defs><g id="Capa_2" data-name="Capa 2"><g id="Capa_2-2" data-name="Capa 2"><g id="marca"><path class="cls-1" d="M112.58,19.51a3.93,3.93,0,0,1-1.34-.33,15,15,0,0,1-2.42-1c-.35-.18-.64-.34-.91-.5a16.1,16.1,0,0,1-3-2.3l-.31-.31c-.33-.35-.58-.64-.81-.93a11.66,11.66,0,0,1-2.5-5.62,7.91,7.91,0,0,1,.33-4A6.59,6.59,0,0,1,105,.5a5.92,5.92,0,0,1,2.44-.5c.31,0,.65,0,1,.05a8.57,8.57,0,0,1,4.15,1.76A8.47,8.47,0,0,1,116.71.06a8.91,8.91,0,0,1,1-.06,5.87,5.87,0,0,1,2.43.5,6.53,6.53,0,0,1,3.42,4,7.72,7.72,0,0,1,.33,4.05,11.5,11.5,0,0,1-2.5,5.61c-.23.29-.48.58-.8.92l-.31.31a16,16,0,0,1-3,2.31c-.28.17-.57.32-.92.5a14.3,14.3,0,0,1-2.42,1A3.89,3.89,0,0,1,112.58,19.51ZM107.45.81a5.3,5.3,0,0,0-2.11.42,5.83,5.83,0,0,0-3,3.5,7,7,0,0,0-.29,3.64,10.72,10.72,0,0,0,2.33,5.23,11,11,0,0,0,.76.87l.3.3A14.88,14.88,0,0,0,108.32,17c.26.15.53.3.87.47a15,15,0,0,0,2.31,1,3.7,3.7,0,0,0,1.08.29,3.56,3.56,0,0,0,1.06-.29,14.29,14.29,0,0,0,2.32-1c.34-.17.62-.32.88-.47a15.52,15.52,0,0,0,2.87-2.19l.31-.3c.29-.31.52-.59.73-.86a10.64,10.64,0,0,0,2.34-5.23h0a7,7,0,0,0-.28-3.64,5.8,5.8,0,0,0-3-3.5,5.17,5.17,0,0,0-2.09-.42c-.28,0-.6,0-.9,0a7.77,7.77,0,0,0-4,1.78l-.26.22-.26-.22a7.84,7.84,0,0,0-4-1.78A8.77,8.77,0,0,0,107.45.81Z"/><path class="cls-1" d="M103.48,5.13a5.33,5.33,0,0,1,1.17-2,.38.38,0,0,1,.42-.13.36.36,0,0,1,.22.34.37.37,0,0,1-.12.25,4.75,4.75,0,0,0-1.25,3.28c0,.24-.13.4-.34.4a.35.35,0,0,1-.35-.39A5.33,5.33,0,0,1,103.48,5.13Z"/><g id="LAZO"><path class="cls-1" d="M110.68,8.8c0,.42,0,.42-.36.33-.89-.23-1.79-.48-2.67-.73A.87.87,0,0,1,107.1,7a1.75,1.75,0,0,1,1-.8.94.94,0,0,1,1.16.35c.45.62.89,1.25,1.35,1.87C110.7,8.53,110.66,8.68,110.68,8.8Z"/><path class="cls-1" d="M112.4,9.38c-.24.33-.24.33.11.47l2.56.91a.86.86,0,0,0,1.25-.85,1.74,1.74,0,0,0-.35-1.2.92.92,0,0,0-1.13-.37c-.71.25-1.42.52-2.14.76C112.54,9.15,112.48,9.29,112.4,9.38Z"/><path class="cls-1" d="M110.8,8.8c-.15.46-.15.46-.52.22-.88-.58-1.77-1.18-2.63-1.78a1,1,0,0,1-.07-1.76A2,2,0,0,1,109,5a1.08,1.08,0,0,1,1.13.81c.26.85.5,1.7.77,2.54A.93.93,0,0,1,110.8,8.8Z"/><path class="cls-1" d="M116.88,9a.88.88,0,0,1-1,.92c-1,0-2-.06-3-.1h-.26c-.48,0-.48,0-.34-.49a.76.76,0,0,1,.38-.5l1.9-1.44a1.1,1.1,0,0,1,1.47,0A1.93,1.93,0,0,1,116.88,9Z"/><path class="cls-1" d="M111.87,9.29c-.09.28-.2.34-.48.25s-.34-.2-.27-.44.2-.37.48-.28S112,9,111.87,9.29Z"/></g><path class="cls-1" d="M117.14,12.48l-.52,1.63-.77-.25-1.31,4.56-.77.28a4,4,0,0,1-1.19.31h0l1.64-5.67-3.41-1.07-1.7,5.47-.37-.19,1.66-5.41L106.91,11s-1,2.94-1.37,4.23l-.28-.26-.3-.31a10,10,0,0,1-.75-.86l1.07-3.32-.77-.25L105,8.64Z"/><path class="cls-1" d="M0,19.17v-1.1H.33A4.46,4.46,0,0,0,1.17,18a1.74,1.74,0,0,0,.69-.26,1.26,1.26,0,0,0,.46-.57,2.48,2.48,0,0,0,.17-1V3.31a2.08,2.08,0,0,0-.18-.93,1.36,1.36,0,0,0-.46-.54,1.73,1.73,0,0,0-.69-.25,5.49,5.49,0,0,0-.83-.06H0V.43H7.37a9.46,9.46,0,0,1,2.87.38,5.22,5.22,0,0,1,2,1.09,4.38,4.38,0,0,1,1.18,1.72,6.38,6.38,0,0,1,.39,2.3,7.05,7.05,0,0,1-.36,2.24,5,5,0,0,1-1.2,1.9,6,6,0,0,1-2.18,1.32,9.63,9.63,0,0,1-3.3.5H5.14v4.43a2.18,2.18,0,0,0,.17.93,1.29,1.29,0,0,0,.47.53,1.88,1.88,0,0,0,.69.24,5.36,5.36,0,0,0,.82.06h.88v1.1Zm5.14-8.54h1.4a7.2,7.2,0,0,0,2-.25A3.06,3.06,0,0,0,10,9.58a3.4,3.4,0,0,0,.79-1.44A7.7,7.7,0,0,0,11,6a7.24,7.24,0,0,0-.22-1.92,3.22,3.22,0,0,0-.7-1.35A2.91,2.91,0,0,0,8.81,2a5.73,5.73,0,0,0-1.89-.27H5.14Z"/><path class="cls-1" d="M32.84,9.77a13.53,13.53,0,0,1-.53,4,8.59,8.59,0,0,1-1.59,3,7.21,7.21,0,0,1-2.59,2,8.55,8.55,0,0,1-3.53.69A8.89,8.89,0,0,1,21,18.74a7,7,0,0,1-2.58-2,8.5,8.5,0,0,1-1.53-3,14.13,14.13,0,0,1-.52-4,14,14,0,0,1,.52-4,8.49,8.49,0,0,1,1.53-3A6.89,6.89,0,0,1,21,.82,9,9,0,0,1,24.63.13a8.46,8.46,0,0,1,3.51.69,7.12,7.12,0,0,1,2.58,2,8.54,8.54,0,0,1,1.59,3A13.55,13.55,0,0,1,32.84,9.77Zm-13.6,0a19.1,19.1,0,0,0,.29,3.48,7.52,7.52,0,0,0,.93,2.59,4.37,4.37,0,0,0,1.66,1.62A5.13,5.13,0,0,0,24.6,18a5.11,5.11,0,0,0,2.48-.56,4.37,4.37,0,0,0,1.66-1.62,7.73,7.73,0,0,0,.91-2.59,19.16,19.16,0,0,0,.28-3.48,19.31,19.31,0,0,0-.28-3.48,7.75,7.75,0,0,0-.91-2.58,4.41,4.41,0,0,0-1.64-1.6,5.09,5.09,0,0,0-2.47-.55,5.15,5.15,0,0,0-2.49.55,4.41,4.41,0,0,0-1.67,1.6,7.54,7.54,0,0,0-.94,2.58A19.26,19.26,0,0,0,19.24,9.77Z"/><path class="cls-1" d="M48.9,16a6.62,6.62,0,0,0,1.29,1.57,2.22,2.22,0,0,0,1.46.53h.08v1.1h-.37a18.38,18.38,0,0,1-2-.09A4.37,4.37,0,0,1,48,18.74a2.78,2.78,0,0,1-.94-.72,9.52,9.52,0,0,1-.84-1.21L42.66,10.9H40.49v5.41a2,2,0,0,0,.17.93,1.16,1.16,0,0,0,.47.53,1.77,1.77,0,0,0,.68.24,5.49,5.49,0,0,0,.83.06H43v1.1H35.34v-1.1h.34a5.59,5.59,0,0,0,.83-.06,1.83,1.83,0,0,0,.68-.24,1.22,1.22,0,0,0,.47-.53,2.18,2.18,0,0,0,.17-.93v-13a2.24,2.24,0,0,0-.17-.93,1.38,1.38,0,0,0-.47-.54,1.68,1.68,0,0,0-.68-.25,5.59,5.59,0,0,0-.83-.06h-.34V.43h7.07a8.43,8.43,0,0,1,5.08,1.26,4.46,4.46,0,0,1,1.66,3.8,4.54,4.54,0,0,1-.34,1.84,4.44,4.44,0,0,1-.89,1.37,5.49,5.49,0,0,1-1.24,1,7.64,7.64,0,0,1-1.39.61Zm-8.41-6.3h1.84a6.17,6.17,0,0,0,1.92-.25,2.92,2.92,0,0,0,1.24-.77,3.22,3.22,0,0,0,.66-1.29,7.33,7.33,0,0,0,.19-1.79,6.61,6.61,0,0,0-.21-1.79,2.67,2.67,0,0,0-.71-1.2,2.74,2.74,0,0,0-1.26-.68,7.32,7.32,0,0,0-1.89-.22H40.49Z"/><path class="cls-1" d="M63.69,12.9l-1,2.76a3.52,3.52,0,0,0-.18.61,2.68,2.68,0,0,0-.06.52,1.1,1.1,0,0,0,.43,1,2.2,2.2,0,0,0,1.31.31h.6v1.1H58.38v-1.1h.5a2.48,2.48,0,0,0,.66-.08,1.07,1.07,0,0,0,.48-.32,2.29,2.29,0,0,0,.42-.63c.13-.26.28-.6.44-1L66.7.43h2l5.94,16.24a4.46,4.46,0,0,0,.31.68,1.6,1.6,0,0,0,.38.43,1.26,1.26,0,0,0,.5.22,2.65,2.65,0,0,0,.67.07h.34v1.1H69.68v-1.1h.6c1,0,1.58-.42,1.58-1.26a1.86,1.86,0,0,0-.06-.45c0-.15-.09-.32-.16-.52l-1-2.94ZM68.48,7c-.27-.78-.52-1.5-.75-2.18s-.41-1.34-.55-2c-.06.32-.13.62-.21.92s-.17.59-.27.9-.2.63-.32,1-.25.71-.41,1.12l-1.78,4.83h5.92Z"/><path class="cls-1" d="M93.53,19.17v-1.1h.09a4.46,4.46,0,0,0,.77-.06,1.27,1.27,0,0,0,.57-.23,1.09,1.09,0,0,0,.38-.5,2.47,2.47,0,0,0,.17-.86v-14l-6,16.78H88.07L82,2.44V16.18a3.3,3.3,0,0,0,.13,1,1.2,1.2,0,0,0,.38.57,1.36,1.36,0,0,0,.6.26,3.87,3.87,0,0,0,.79.07H84v1.1H77.89v-1.1h.34a5.36,5.36,0,0,0,.82-.06,1.82,1.82,0,0,0,.69-.24,1.22,1.22,0,0,0,.47-.53,2.18,2.18,0,0,0,.17-.93v-13a2.24,2.24,0,0,0-.17-.93,1.38,1.38,0,0,0-.47-.54,1.67,1.67,0,0,0-.69-.25,5.36,5.36,0,0,0-.82-.06h-.34V.43h6l5.44,15L94.7.43h5.82v1.1h-.33a4.46,4.46,0,0,0-.84.07,1.74,1.74,0,0,0-.69.26,1.32,1.32,0,0,0-.46.57,2.48,2.48,0,0,0-.17,1V16.18a2.48,2.48,0,0,0,.17,1,1.32,1.32,0,0,0,.46.57,1.74,1.74,0,0,0,.69.26,4.46,4.46,0,0,0,.84.07h.33v1.1Z"/><path class="cls-1" d="M138.18,16a6.88,6.88,0,0,0,1.3,1.57,2.2,2.2,0,0,0,1.46.53H141v1.1h-.37a18.38,18.38,0,0,1-2-.09,4.3,4.3,0,0,1-1.34-.34,2.82,2.82,0,0,1-.95-.72,9.52,9.52,0,0,1-.84-1.21L132,10.9h-2.18v5.41a2,2,0,0,0,.18.93,1.16,1.16,0,0,0,.47.53,1.77,1.77,0,0,0,.68.24,5.49,5.49,0,0,0,.83.06h.34v1.1h-7.64v-1.1H125a5.36,5.36,0,0,0,.82-.06,1.88,1.88,0,0,0,.69-.24,1.22,1.22,0,0,0,.47-.53,2.18,2.18,0,0,0,.17-.93v-13a2.24,2.24,0,0,0-.17-.93,1.38,1.38,0,0,0-.47-.54,1.73,1.73,0,0,0-.69-.25,5.36,5.36,0,0,0-.82-.06h-.34V.43h7.07a8.37,8.37,0,0,1,5.07,1.26,4.47,4.47,0,0,1,1.67,3.8,4.54,4.54,0,0,1-.34,1.84,4.63,4.63,0,0,1-.89,1.37,5.49,5.49,0,0,1-1.24,1,8,8,0,0,1-1.39.61Zm-8.41-6.3h1.85a6.17,6.17,0,0,0,1.92-.25,2.82,2.82,0,0,0,1.23-.77,3,3,0,0,0,.66-1.29,6.85,6.85,0,0,0,.2-1.79,6.21,6.21,0,0,0-.22-1.79,2.66,2.66,0,0,0-.7-1.2,2.84,2.84,0,0,0-1.26-.68,7.32,7.32,0,0,0-1.89-.22h-1.79Z"/></g></g></g></svg>