<svg xmlns="http://www.w3.org/2000/svg" viewBox="0 0 26.1 28.8"><defs><style>.cls-1{fill:#f1bf7b;fill-rule:evenodd;}</style></defs><g id="Capa_2" data-name="Capa 2"><g id="Capa_2-2" data-name="Capa 2"><path class="cls-1" d="M13.05,2.06A5,5,0,0,0,9.5,3.56,5.24,5.24,0,0,0,8,7.2v1h10v-1A5.24,5.24,0,0,0,16.6,3.56,5,5,0,0,0,13.05,2.06Zm7,6.17v-1A7.28,7.28,0,0,0,18,2.11a6.91,6.91,0,0,0-9.94,0A7.28,7.28,0,0,0,6,7.2v1H2a2,2,0,0,0-1.42.6A2.08,2.08,0,0,0,0,10.29V24.17A4.64,4.64,0,0,0,4.52,28.8H21.58a4.57,4.57,0,0,0,4.52-4.55v-14a2.08,2.08,0,0,0-.59-1.46,2,2,0,0,0-1.42-.6ZM2,10.29V24.17a2.59,2.59,0,0,0,2.51,2.57H21.58a2.52,2.52,0,0,0,2.51-2.49v-14Z"/><path class="cls-1" d="M7.46,9.16a1.07,1.07,0,0,1,.93,1.17v1.16A6.64,6.64,0,0,0,9.75,15.6a4.24,4.24,0,0,0,3.3,1.71,4.24,4.24,0,0,0,3.3-1.71,6.64,6.64,0,0,0,1.36-4.11V10.33a1.07,1.07,0,0,1,.93-1.17,1.07,1.07,0,0,1,.94,1.17v1.16a9.25,9.25,0,0,1-1.92,5.76,5.93,5.93,0,0,1-4.61,2.39,5.93,5.93,0,0,1-4.61-2.39,9.24,9.24,0,0,1-1.91-5.76V10.33A1.06,1.06,0,0,1,7.46,9.16Z"/></g></g></svg>